<?xml version="1.0" encoding="utf-8"?>
<!-- Generator: Adobe Illustrator 28.1.0, SVG Export Plug-In . SVG Version: 6.00 Build 0)  -->
<svg version="1.1" id="Layer_1" xmlns="http://www.w3.org/2000/svg" xmlns:xlink="http://www.w3.org/1999/xlink" x="0px" y="0px"
	 viewBox="0 0 505.5 462.6" style="enable-background:new 0 0 505.5 462.6;" xml:space="preserve">
<style type="text/css">
	.st0{fill:url(#SVGID_1_);}
	.st1{fill:url(#SVGID_00000115473767124278118110000002585839451224095911_);}
	.st2{fill:url(#SVGID_00000104682465772382242640000011230906863506768545_);}
	.st3{opacity:0.4;}
	.st4{fill:url(#SVGID_00000125576423337273601690000017325600060329534368_);}
	.st5{fill:url(#SVGID_00000106847070850815006630000012872145711820657305_);}
	.st6{fill:url(#SVGID_00000120551279234229818650000013645274387814460339_);}
	.st7{fill:url(#SVGID_00000173873679312476264630000006530908398982645166_);}
	.st8{fill:url(#SVGID_00000043446926529909144630000003518624794369173412_);}
	.st9{opacity:0.6;}
	.st10{fill:url(#SVGID_00000158729914619428444980000015640422393784689822_);}
	.st11{fill:url(#SVGID_00000008855650843894331990000015243863944703400580_);}
	.st12{opacity:0.35;}
	.st13{opacity:0.36;}
	.st14{fill:#F86F6E;}
	.st15{opacity:0.2;}
	.st16{opacity:0.15;}
	.st17{fill:url(#SVGID_00000173131661908713321630000007686208456688938889_);}
	.st18{fill:url(#SVGID_00000152251734544775102390000000131971129956124307_);}
	.st19{fill:url(#SVGID_00000164499476185670709920000009950827428650537383_);}
	.st20{fill:url(#SVGID_00000022549116163452278310000014711521226757035664_);}
	.st21{fill:url(#SVGID_00000038400162085581399800000012264119447510511548_);}
	.st22{fill:url(#SVGID_00000083782626663019568740000012937421490840488381_);}
	.st23{fill:url(#SVGID_00000000938813243618915730000002873579255908408980_);}
	.st24{fill:url(#SVGID_00000048489878111331638430000005809936934600656034_);}
</style>
<g>
	<radialGradient id="SVGID_1_" cx="209.5501" cy="167.6611" r="281.4164" gradientUnits="userSpaceOnUse">
		<stop  offset="0" style="stop-color:#FFFFFF"/>
		<stop  offset="1.585416e-02" style="stop-color:#FFFFF6"/>
		<stop  offset="4.226714e-02" style="stop-color:#FFFDDC"/>
		<stop  offset="7.598539e-02" style="stop-color:#FFFBB2"/>
		<stop  offset="0.1157" style="stop-color:#FFF879"/>
		<stop  offset="0.16" style="stop-color:#FFF530"/>
		<stop  offset="0.1667" style="stop-color:#FFF424"/>
		<stop  offset="0.3413" style="stop-color:#EFD40F"/>
		<stop  offset="0.4297" style="stop-color:#EDBD1C"/>
		<stop  offset="0.5994" style="stop-color:#EA9533"/>
		<stop  offset="0.7346" style="stop-color:#E97D41"/>
		<stop  offset="0.8175" style="stop-color:#E87446"/>
		<stop  offset="0.8723" style="stop-color:#EB843E"/>
		<stop  offset="0.9789" style="stop-color:#F2AD29"/>
		<stop  offset="1" style="stop-color:#F3B625"/>
	</radialGradient>
	<circle class="st0" cx="256.9" cy="231.3" r="192.1"/>
	
		<linearGradient id="SVGID_00000128447840658338731500000010905110858188072617_" gradientUnits="userSpaceOnUse" x1="151.2689" y1="40.7381" x2="369.8024" y2="434.9991">
		<stop  offset="0" style="stop-color:#FFFFFF"/>
		<stop  offset="1.832937e-02" style="stop-color:#F4FEFE;stop-opacity:0.976"/>
		<stop  offset="7.181036e-02" style="stop-color:#D9FDFB;stop-opacity:0.9061"/>
		<stop  offset="0.1333" style="stop-color:#C3FCF9;stop-opacity:0.8256"/>
		<stop  offset="0.2051" style="stop-color:#B2FBF7;stop-opacity:0.7317"/>
		<stop  offset="0.294" style="stop-color:#A7FAF6;stop-opacity:0.6155"/>
		<stop  offset="0.4186" style="stop-color:#A0FAF5;stop-opacity:0.4525"/>
		<stop  offset="0.7646" style="stop-color:#9EFAF5;stop-opacity:0"/>
	</linearGradient>
	<circle style="fill:url(#SVGID_00000128447840658338731500000010905110858188072617_);" cx="256.9" cy="231.3" r="176.9"/>
	
		<linearGradient id="SVGID_00000102516745258636346710000016279986711816909996_" gradientUnits="userSpaceOnUse" x1="269.8666" y1="402.1601" x2="261.8112" y2="353.4612">
		<stop  offset="0" style="stop-color:#F56251;stop-opacity:0.9202"/>
		<stop  offset="0.1875" style="stop-color:#F5684E;stop-opacity:0.7477"/>
		<stop  offset="0.4433" style="stop-color:#F47A45;stop-opacity:0.5123"/>
		<stop  offset="0.7372" style="stop-color:#F49636;stop-opacity:0.2418"/>
		<stop  offset="1" style="stop-color:#F3B625;stop-opacity:0"/>
	</linearGradient>
	<path style="fill:url(#SVGID_00000102516745258636346710000016279986711816909996_);" d="M292.8,350.3c1.6,7-10.7,15.8-27.4,19.7
		c-16.7,3.8-31.6,1.3-33.2-5.7c-1.6-7,10.7-15.8,27.4-19.7C276.3,340.7,291.1,343.2,292.8,350.3z"/>
	<g class="st3">
		<image style="overflow:visible;" width="265" height="116" xlink:href="94B161C7.png"  transform="matrix(1 0 0 1 126 263.64)">
		</image>
	</g>
	
		<linearGradient id="SVGID_00000152224672773871535390000001552612601999740321_" gradientUnits="userSpaceOnUse" x1="156.103" y1="75.9372" x2="252.6368" y2="186.6671">
		<stop  offset="0" style="stop-color:#FFFFFF"/>
		<stop  offset="4.976001e-02" style="stop-color:#F0FEFD;stop-opacity:0.9349"/>
		<stop  offset="0.167" style="stop-color:#D2FDFA;stop-opacity:0.7815"/>
		<stop  offset="0.2915" style="stop-color:#BBFCF8;stop-opacity:0.6188"/>
		<stop  offset="0.4246" style="stop-color:#ABFBF6;stop-opacity:0.4447"/>
		<stop  offset="0.5725" style="stop-color:#A1FAF5;stop-opacity:0.2512"/>
		<stop  offset="0.7646" style="stop-color:#9EFAF5;stop-opacity:0"/>
	</linearGradient>
	<path style="fill:url(#SVGID_00000152224672773871535390000001552612601999740321_);" d="M243,80.6c8.2,14.2-9.8,39.9-40.2,57.5
		c-30.4,17.6-61.7,20.3-69.9,6.1s9.8-39.9,40.2-57.5C203.5,69.2,234.8,66.5,243,80.6z"/>
	
		<linearGradient id="SVGID_00000008132524480098609070000010133606812989020033_" gradientUnits="userSpaceOnUse" x1="258.741" y1="35.2905" x2="370.9019" y2="153.4041" gradientTransform="matrix(0.9751 -0.2216 0.2216 0.9751 -18.0213 67.3513)">
		<stop  offset="0" style="stop-color:#FFFFFF"/>
		<stop  offset="1.923609e-02" style="stop-color:#FAFFFE;stop-opacity:0.9748"/>
		<stop  offset="0.1569" style="stop-color:#D9FDFB;stop-opacity:0.7948"/>
		<stop  offset="0.2986" style="stop-color:#BFFCF8;stop-opacity:0.6095"/>
		<stop  offset="0.4442" style="stop-color:#ADFBF6;stop-opacity:0.4191"/>
		<stop  offset="0.5961" style="stop-color:#A2FAF5;stop-opacity:0.2203"/>
		<stop  offset="0.7646" style="stop-color:#9EFAF5;stop-opacity:0"/>
	</linearGradient>
	<path style="fill:url(#SVGID_00000008132524480098609070000010133606812989020033_);" d="M328.4,92.7c-2.1,6.7-15.4,8.5-29.7,4.1
		c-14.3-4.4-24.3-13.5-22.2-20.1c2.1-6.7,15.4-8.5,29.7-4.1C320.6,77,330.5,86,328.4,92.7z"/>
	
		<linearGradient id="SVGID_00000173875289213731235120000016349929880795056293_" gradientUnits="userSpaceOnUse" x1="203.142" y1="352.4872" x2="263.7322" y2="403.2636" gradientTransform="matrix(-0.9283 0.3718 -0.3718 -0.9283 746.6634 583.7605)">
		<stop  offset="0" style="stop-color:#FFFFFF"/>
		<stop  offset="7.286988e-02" style="stop-color:#E5FEFC;stop-opacity:0.9047"/>
		<stop  offset="0.1644" style="stop-color:#CBFCFA;stop-opacity:0.7849"/>
		<stop  offset="0.266" style="stop-color:#B7FBF8;stop-opacity:0.652"/>
		<stop  offset="0.3816" style="stop-color:#A9FBF6;stop-opacity:0.5009"/>
		<stop  offset="0.523" style="stop-color:#A0FAF5;stop-opacity:0.316"/>
		<stop  offset="0.7646" style="stop-color:#9EFAF5;stop-opacity:0"/>
	</linearGradient>
	<path style="fill:url(#SVGID_00000173875289213731235120000016349929880795056293_);" d="M366.1,350c-7.8-6.1-3.5-24.6,9.6-41.2
		c13.1-16.7,30-25.2,37.8-19.1c7.8,6.1,3.5,24.6-9.6,41.2C390.8,347.6,373.9,356.1,366.1,350z"/>
	
		<radialGradient id="SVGID_00000145055525589575044110000016846008441049617046_" cx="914.9554" cy="193.6265" r="70.4345" gradientTransform="matrix(0.9308 0 0 0.8943 -658.9703 64.8158)" gradientUnits="userSpaceOnUse">
		<stop  offset="0" style="stop-color:#F55B55"/>
		<stop  offset="1" style="stop-color:#F3B625;stop-opacity:0"/>
	</radialGradient>
	<ellipse style="fill:url(#SVGID_00000145055525589575044110000016846008441049617046_);" cx="192.7" cy="238" rx="65.6" ry="63"/>
	
		<radialGradient id="SVGID_00000130616159872061687670000004226934137957771433_" cx="1103.537" cy="193.6265" r="70.4345" gradientTransform="matrix(0.9308 0 0 0.8943 -658.9703 64.8158)" gradientUnits="userSpaceOnUse">
		<stop  offset="0" style="stop-color:#F55B55"/>
		<stop  offset="1" style="stop-color:#F3B625;stop-opacity:0"/>
	</radialGradient>
	<ellipse style="fill:url(#SVGID_00000130616159872061687670000004226934137957771433_);" cx="368.2" cy="238" rx="65.6" ry="63"/>
	<g>
		<g class="st9">
			
				<radialGradient id="SVGID_00000038376770794051370000000004461571500843878055_" cx="158.8969" cy="257.5201" r="66.8921" gradientTransform="matrix(1 0 0 1.3068 0 -58.8587)" gradientUnits="userSpaceOnUse">
				<stop  offset="0" style="stop-color:#F56251;stop-opacity:0.9202"/>
				<stop  offset="0.1875" style="stop-color:#F5684E;stop-opacity:0.7477"/>
				<stop  offset="0.4433" style="stop-color:#F47A45;stop-opacity:0.5123"/>
				<stop  offset="0.7372" style="stop-color:#F49636;stop-opacity:0.2418"/>
				<stop  offset="1" style="stop-color:#F3B625;stop-opacity:0"/>
			</radialGradient>
			
				<ellipse style="fill:url(#SVGID_00000038376770794051370000000004461571500843878055_);" cx="158.9" cy="277.7" rx="66.9" ry="87.4"/>
		</g>
		<g class="st9">
			
				<radialGradient id="SVGID_00000004523104000460701970000009704889249181885861_" cx="354.9148" cy="257.5201" r="66.8921" gradientTransform="matrix(1 0 0 1.3068 0 -58.8587)" gradientUnits="userSpaceOnUse">
				<stop  offset="0" style="stop-color:#F56251;stop-opacity:0.9202"/>
				<stop  offset="0.1875" style="stop-color:#F5684E;stop-opacity:0.7477"/>
				<stop  offset="0.4433" style="stop-color:#F47A45;stop-opacity:0.5123"/>
				<stop  offset="0.7372" style="stop-color:#F49636;stop-opacity:0.2418"/>
				<stop  offset="1" style="stop-color:#F3B625;stop-opacity:0"/>
			</radialGradient>
			
				<ellipse style="fill:url(#SVGID_00000004523104000460701970000009704889249181885861_);" cx="354.9" cy="277.7" rx="66.9" ry="87.4"/>
		</g>
	</g>
	<g>
		
			<image style="overflow:visible;opacity:0.4;" width="259" height="77" xlink:href="94B161C2.png"  transform="matrix(1 0 0 1 139 77.64)">
		</image>
		<g>
			<g>
				<g>
					<g>
						<g>
							<defs>
								<path id="SVGID_00000012472442114168450070000000993160664631259264_" d="M310.2,114.8l-0.3,0.1l-0.4,0.1
									c-3.2,1-6.5-0.7-7.5-3.9c-1-3.2,0.7-6.5,3.9-7.5l0.4-0.1L310.2,114.8z"/>
							</defs>
							<clipPath id="SVGID_00000151523385348735346560000003883586979756366232_">
								<use xlink:href="#SVGID_00000012472442114168450070000000993160664631259264_"  style="overflow:visible;"/>
							</clipPath>
						</g>
						<g>
							<defs>
								<path id="SVGID_00000176006790465452131400000015645198628147735708_" d="M369,121.4l0.3,0l0.5-0.1c3.3-0.5,6.3,1.8,6.8,5
									c0.5,3.3-1.7,6.3-5,6.8l-0.5,0.1L369,121.4z"/>
							</defs>
							<clipPath id="SVGID_00000081608523869986676940000007948062885156681405_">
								<use xlink:href="#SVGID_00000176006790465452131400000015645198628147735708_"  style="overflow:visible;"/>
							</clipPath>
						</g>
					</g>
					<g>
						<g>
							<defs>
								<path id="SVGID_00000110441088530797350030000010736619573489000895_" d="M214,94.8l0.4,0.3c2.4,2.3,2.5,6.1,0.3,8.5
									c-2.3,2.4-6,2.5-8.4,0.3l-0.4-0.4l-0.2-0.2L214,94.8z"/>
							</defs>
							<clipPath id="SVGID_00000145751771392109872750000009660707382513581989_">
								<use xlink:href="#SVGID_00000110441088530797350030000010736619573489000895_"  style="overflow:visible;"/>
							</clipPath>
						</g>
						<g>
							<defs>
								<path id="SVGID_00000000925113583469182800000010211376578007590786_" d="M159.6,122.3l-0.3,0.3l-0.1,0.1
									c-2.3,2.4-6.1,2.6-8.5,0.3c-2.4-2.3-2.6-6-0.3-8.5l0.3-0.3L159.6,122.3z"/>
							</defs>
							<clipPath id="SVGID_00000177453226870730559870000006860187586416629400_">
								<use xlink:href="#SVGID_00000000925113583469182800000010211376578007590786_"  style="overflow:visible;"/>
							</clipPath>
						</g>
					</g>
				</g>
				<g>
					<g>
						<g>
							<defs>
								<path id="SVGID_00000129918207597042463170000015447951258811179155_" d="M310.2,114.8l-0.3,0.1l-0.4,0.1
									c-3.2,1-6.5-0.7-7.5-3.9c-1-3.2,0.7-6.5,3.9-7.5l0.4-0.1L310.2,114.8z"/>
							</defs>
							<clipPath id="SVGID_00000070840612143591605110000006263816214236190890_">
								<use xlink:href="#SVGID_00000129918207597042463170000015447951258811179155_"  style="overflow:visible;"/>
							</clipPath>
							<g style="clip-path:url(#SVGID_00000070840612143591605110000006263816214236190890_);">
								
									<image style="overflow:visible;" width="28" height="20" xlink:href="94B161C3.png"  transform="matrix(1 0 0 1 283 102.64)">
								</image>
							</g>
						</g>
						<image style="overflow:visible;" width="67" height="34" xlink:href="94B161CC.png"  transform="matrix(1 0 0 1 305 100.64)">
						</image>
						<g>
							<defs>
								<path id="SVGID_00000116227091852651520170000007632097869821585027_" d="M369,121.4l0.3,0l0.5-0.1c3.3-0.5,6.3,1.8,6.8,5
									c0.5,3.3-1.7,6.3-5,6.8l-0.5,0.1L369,121.4z"/>
							</defs>
							<clipPath id="SVGID_00000045577453110702296440000013241883877539718293_">
								<use xlink:href="#SVGID_00000116227091852651520170000007632097869821585027_"  style="overflow:visible;"/>
							</clipPath>
							<g style="clip-path:url(#SVGID_00000045577453110702296440000013241883877539718293_);">
								
									<image style="overflow:visible;" width="28" height="16" xlink:href="94B161CF.png"  transform="matrix(1 0 0 1 368 117.64)">
								</image>
							</g>
						</g>
					</g>
					<g>
						<g>
							<defs>
								<path id="SVGID_00000113343026621025670190000006204236896717503397_" d="M214,94.8l0.4,0.3c2.4,2.3,2.5,6.1,0.3,8.5
									c-2.3,2.4-6,2.5-8.4,0.3l-0.4-0.4l-0.2-0.2L214,94.8z"/>
							</defs>
							<clipPath id="SVGID_00000034796284012938528460000014340365184435512250_">
								<use xlink:href="#SVGID_00000113343026621025670190000006204236896717503397_"  style="overflow:visible;"/>
							</clipPath>
							<g style="clip-path:url(#SVGID_00000034796284012938528460000014340365184435512250_);">
								
									<image style="overflow:visible;" width="27" height="27" xlink:href="94B161CD.png"  transform="matrix(1 0 0 1 205 93.64)">
								</image>
							</g>
						</g>
						<image style="overflow:visible;" width="65" height="36" xlink:href="94B161C1.png"  transform="matrix(1 0 0 1 150 86.64)">
						</image>
						<g>
							<defs>
								<path id="SVGID_00000161624737481849606450000016862452896809829055_" d="M159.6,122.3l-0.3,0.3l-0.1,0.1
									c-2.3,2.4-6.1,2.6-8.5,0.3c-2.4-2.3-2.6-6-0.3-8.5l0.3-0.3L159.6,122.3z"/>
							</defs>
							<clipPath id="SVGID_00000168083843526507510990000002619065604962679997_">
								<use xlink:href="#SVGID_00000161624737481849606450000016862452896809829055_"  style="overflow:visible;"/>
							</clipPath>
							<g style="clip-path:url(#SVGID_00000168083843526507510990000002619065604962679997_);">
								
									<image style="overflow:visible;" width="27" height="28" xlink:href="94B161C6.png"  transform="matrix(1 0 0 1 134 112.64)">
								</image>
							</g>
						</g>
					</g>
				</g>
				<g>
					<g>
						<g>
							<defs>
								<path id="SVGID_00000111902237847529704300000004778207423989402515_" d="M310.2,114.8l-0.3,0.1l-0.4,0.1
									c-3.2,1-6.5-0.7-7.5-3.9c-1-3.2,0.7-6.5,3.9-7.5l0.4-0.1L310.2,114.8z"/>
							</defs>
							<clipPath id="SVGID_00000170262678776231521800000016494609083394519688_">
								<use xlink:href="#SVGID_00000111902237847529704300000004778207423989402515_"  style="overflow:visible;"/>
							</clipPath>
						</g>
						<g>
							<defs>
								<path id="SVGID_00000128448976792413418620000003841654048393755018_" d="M369,121.4l0.3,0l0.5-0.1c3.3-0.5,6.3,1.8,6.8,5
									c0.5,3.3-1.7,6.3-5,6.8l-0.5,0.1L369,121.4z"/>
							</defs>
							<clipPath id="SVGID_00000083784645473868953280000009098126952068048048_">
								<use xlink:href="#SVGID_00000128448976792413418620000003841654048393755018_"  style="overflow:visible;"/>
							</clipPath>
						</g>
					</g>
					<g>
						<g>
							<defs>
								<path id="SVGID_00000021798298166919437270000015546413038704416154_" d="M214,94.8l0.4,0.3c2.4,2.3,2.5,6.1,0.3,8.5
									c-2.3,2.4-6,2.5-8.4,0.3l-0.4-0.4l-0.2-0.2L214,94.8z"/>
							</defs>
							<clipPath id="SVGID_00000088109214732762459770000004507895572779772055_">
								<use xlink:href="#SVGID_00000021798298166919437270000015546413038704416154_"  style="overflow:visible;"/>
							</clipPath>
						</g>
						<g>
							<defs>
								<path id="SVGID_00000174602768507131482590000015430407162787604636_" d="M159.6,122.3l-0.3,0.3l-0.1,0.1
									c-2.3,2.4-6.1,2.6-8.5,0.3c-2.4-2.3-2.6-6-0.3-8.5l0.3-0.3L159.6,122.3z"/>
							</defs>
							<clipPath id="SVGID_00000147211411610700938590000016772683177477848242_">
								<use xlink:href="#SVGID_00000174602768507131482590000015430407162787604636_"  style="overflow:visible;"/>
							</clipPath>
						</g>
					</g>
				</g>
			</g>
		</g>
	</g>
	<g class="st12">
		<image style="overflow:visible;" width="263" height="117" xlink:href="94B161C0.png"  transform="matrix(1 0 0 1 130 272.64)">
		</image>
	</g>
	<g class="st13">
		<path class="st14" d="M162.1,337.4c7.3,3.8,15.4,6.7,23.5,7.8c8,0.9,16.3-0.5,24.2-2.4c16.1-4.1,31.2-11.2,46.1-18.6
			c15.4-7.4,31.3-14.9,48.5-16.4c12.9-1.2,26.5,0.6,37.7,7.5c3.6,2.3,6.9,5.1,9.7,8.3c-11.2-9.5-26.3-12.3-40.6-11.1
			c-27.4,2.3-50.3,18.9-75.5,28.5c-16.1,5.9-33.3,10.9-50.7,7.7C176.6,346.5,168.9,342.6,162.1,337.4L162.1,337.4z"/>
	</g>
	<g class="st15">
		<path class="st14" d="M345.1,337.6c12-1.1,20.7-4.5,21.9-17.9C369.4,333.4,357.1,340,345.1,337.6L345.1,337.6z"/>
	</g>
	<g class="st16">
		<image style="overflow:visible;" width="98" height="95" xlink:href="7DA321A3.png"  transform="matrix(1 0 0 1 314 283.64)">
		</image>
	</g>
	
		<radialGradient id="SVGID_00000124158993080627558030000017726833540627906988_" cx="331.4966" cy="182.8543" r="75.5626" gradientUnits="userSpaceOnUse">
		<stop  offset="0.5079" style="stop-color:#FFFFFF"/>
		<stop  offset="0.8704" style="stop-color:#D2FDFA"/>
		<stop  offset="0.8795" style="stop-color:#D8FDFB"/>
		<stop  offset="0.9133" style="stop-color:#E8FEFD"/>
		<stop  offset="0.951" style="stop-color:#F2FFFE"/>
		<stop  offset="1" style="stop-color:#F5FFFE"/>
	</radialGradient>
	<circle style="fill:url(#SVGID_00000124158993080627558030000017726833540627906988_);" cx="344" cy="197.4" r="57"/>
	
		<radialGradient id="SVGID_00000106859112469995007690000002923295669301690001_" cx="157.3215" cy="182.8543" r="75.5626" gradientUnits="userSpaceOnUse">
		<stop  offset="0.5079" style="stop-color:#FFFFFF"/>
		<stop  offset="0.8704" style="stop-color:#D2FDFA"/>
		<stop  offset="0.8795" style="stop-color:#D8FDFB"/>
		<stop  offset="0.9133" style="stop-color:#E8FEFD"/>
		<stop  offset="0.951" style="stop-color:#F2FFFE"/>
		<stop  offset="1" style="stop-color:#F5FFFE"/>
	</radialGradient>
	<circle style="fill:url(#SVGID_00000106859112469995007690000002923295669301690001_);" cx="169.8" cy="197.4" r="57"/>
	<g>
		
			<radialGradient id="SVGID_00000084529721294527399110000005868042892426968750_" cx="476.9517" cy="24.053" r="59.0285" gradientTransform="matrix(0.6069 -9.868488e-03 9.433755e-03 0.631 62.1362 148.34)" gradientUnits="userSpaceOnUse">
			<stop  offset="0" style="stop-color:#FFFFFF"/>
			<stop  offset="1.433599e-02" style="stop-color:#F3F3F3"/>
			<stop  offset="8.393415e-02" style="stop-color:#BBBBBB"/>
			<stop  offset="0.1438" style="stop-color:#929292"/>
			<stop  offset="0.191" style="stop-color:#797979"/>
			<stop  offset="0.2196" style="stop-color:#707070"/>
			<stop  offset="0.4894" style="stop-color:#3C3C3C"/>
			<stop  offset="0.7275" style="stop-color:#191919"/>
			<stop  offset="0.9524" style="stop-color:#5F5F5F"/>
		</radialGradient>
		
			<ellipse style="fill:url(#SVGID_00000084529721294527399110000005868042892426968750_);" cx="358.1" cy="168" rx="25.4" ry="26.5"/>
		
			<linearGradient id="SVGID_00000001624169269638142620000008748479526458378933_" gradientUnits="userSpaceOnUse" x1="342.0283" y1="135.3296" x2="368.6928" y2="167.7207">
			<stop  offset="0" style="stop-color:#FFFFFF"/>
			<stop  offset="4.976001e-02" style="stop-color:#F0FEFD;stop-opacity:0.9349"/>
			<stop  offset="0.167" style="stop-color:#D2FDFA;stop-opacity:0.7815"/>
			<stop  offset="0.2915" style="stop-color:#BBFCF8;stop-opacity:0.6188"/>
			<stop  offset="0.4246" style="stop-color:#ABFBF6;stop-opacity:0.4447"/>
			<stop  offset="0.5725" style="stop-color:#A1FAF5;stop-opacity:0.2512"/>
			<stop  offset="0.7646" style="stop-color:#9EFAF5;stop-opacity:0"/>
		</linearGradient>
		<path style="fill:url(#SVGID_00000001624169269638142620000008748479526458378933_);" d="M358.1,165.8c-7,0-12.6-4.9-12.6-11
			c0-6.1,5.7-11,12.6-11c7,0,12.6,4.9,12.6,11C370.7,160.9,365.1,165.8,358.1,165.8z"/>
		
			<linearGradient id="SVGID_00000109744245376919324260000007117414590946209442_" gradientUnits="userSpaceOnUse" x1="352.6913" y1="163.132" x2="364.5197" y2="177.5007">
			<stop  offset="0" style="stop-color:#FFFFFF"/>
			<stop  offset="4.976001e-02" style="stop-color:#F0FEFD;stop-opacity:0.9349"/>
			<stop  offset="0.167" style="stop-color:#D2FDFA;stop-opacity:0.7815"/>
			<stop  offset="0.2915" style="stop-color:#BBFCF8;stop-opacity:0.6188"/>
			<stop  offset="0.4246" style="stop-color:#ABFBF6;stop-opacity:0.4447"/>
			<stop  offset="0.5725" style="stop-color:#A1FAF5;stop-opacity:0.2512"/>
			<stop  offset="0.7646" style="stop-color:#9EFAF5;stop-opacity:0"/>
		</linearGradient>
		<path style="fill:url(#SVGID_00000109744245376919324260000007117414590946209442_);" d="M359.8,176.6c-3.1,0-5.6-2.2-5.6-4.9
			c0-2.7,2.5-4.9,5.6-4.9c3.1,0,5.6,2.2,5.6,4.9C365.4,174.5,362.9,176.6,359.8,176.6z"/>
	</g>
	<g>
		
			<radialGradient id="SVGID_00000061462798730158637300000013074316489529174959_" cx="181.3309" cy="24.053" r="59.0285" gradientTransform="matrix(0.6069 -9.868488e-03 9.433755e-03 0.631 62.1144 145.4227)" gradientUnits="userSpaceOnUse">
			<stop  offset="0" style="stop-color:#FFFFFF"/>
			<stop  offset="1.433599e-02" style="stop-color:#F3F3F3"/>
			<stop  offset="8.393415e-02" style="stop-color:#BBBBBB"/>
			<stop  offset="0.1438" style="stop-color:#929292"/>
			<stop  offset="0.191" style="stop-color:#797979"/>
			<stop  offset="0.2196" style="stop-color:#707070"/>
			<stop  offset="0.4894" style="stop-color:#3C3C3C"/>
			<stop  offset="0.7275" style="stop-color:#191919"/>
			<stop  offset="0.9524" style="stop-color:#5F5F5F"/>
		</radialGradient>
		
			<ellipse style="fill:url(#SVGID_00000061462798730158637300000013074316489529174959_);" cx="178.6" cy="168" rx="25.4" ry="26.5"/>
		
			<linearGradient id="SVGID_00000173877699966745594560000010241518198679390858_" gradientUnits="userSpaceOnUse" x1="162.5865" y1="135.3296" x2="189.251" y2="167.7207">
			<stop  offset="0" style="stop-color:#FFFFFF"/>
			<stop  offset="4.976001e-02" style="stop-color:#F0FEFD;stop-opacity:0.9349"/>
			<stop  offset="0.167" style="stop-color:#D2FDFA;stop-opacity:0.7815"/>
			<stop  offset="0.2915" style="stop-color:#BBFCF8;stop-opacity:0.6188"/>
			<stop  offset="0.4246" style="stop-color:#ABFBF6;stop-opacity:0.4447"/>
			<stop  offset="0.5725" style="stop-color:#A1FAF5;stop-opacity:0.2512"/>
			<stop  offset="0.7646" style="stop-color:#9EFAF5;stop-opacity:0"/>
		</linearGradient>
		<path style="fill:url(#SVGID_00000173877699966745594560000010241518198679390858_);" d="M178.6,165.8c-7,0-12.6-4.9-12.6-11
			c0-6.1,5.7-11,12.6-11c7,0,12.6,4.9,12.6,11C191.3,160.9,185.6,165.8,178.6,165.8z"/>
		
			<linearGradient id="SVGID_00000135689366006112106640000015825816864264822713_" gradientUnits="userSpaceOnUse" x1="173.2494" y1="163.132" x2="185.0778" y2="177.5007">
			<stop  offset="0" style="stop-color:#FFFFFF"/>
			<stop  offset="4.976001e-02" style="stop-color:#F0FEFD;stop-opacity:0.9349"/>
			<stop  offset="0.167" style="stop-color:#D2FDFA;stop-opacity:0.7815"/>
			<stop  offset="0.2915" style="stop-color:#BBFCF8;stop-opacity:0.6188"/>
			<stop  offset="0.4246" style="stop-color:#ABFBF6;stop-opacity:0.4447"/>
			<stop  offset="0.5725" style="stop-color:#A1FAF5;stop-opacity:0.2512"/>
			<stop  offset="0.7646" style="stop-color:#9EFAF5;stop-opacity:0"/>
		</linearGradient>
		<path style="fill:url(#SVGID_00000135689366006112106640000015825816864264822713_);" d="M180.4,176.6c-3.1,0-5.6-2.2-5.6-4.9
			c0-2.7,2.5-4.9,5.6-4.9c3.1,0,5.6,2.2,5.6,4.9C186,174.5,183.5,176.6,180.4,176.6z"/>
	</g>
</g>
</svg>
