<?xml version="1.0" encoding="utf-8"?>
<!-- Generator: Adobe Illustrator 28.1.0, SVG Export Plug-In . SVG Version: 6.00 Build 0)  -->
<svg version="1.1" id="Layer_1" xmlns="http://www.w3.org/2000/svg" xmlns:xlink="http://www.w3.org/1999/xlink" x="0px" y="0px"
	 viewBox="0 0 505.5 462.6" style="enable-background:new 0 0 505.5 462.6;" xml:space="preserve">
<style type="text/css">
	.st0{fill:url(#SVGID_1_);}
	.st1{fill:url(#SVGID_00000111909948865952882420000000814175370449189774_);}
	.st2{clip-path:url(#SVGID_00000054948518839388188480000015565769768377453722_);}
	.st3{opacity:0.7;fill:url(#SVGID_00000001661779192108689520000002611242923863506348_);}
	.st4{opacity:0.7;fill:url(#SVGID_00000135673014309963761740000004239956249579186846_);}
	.st5{opacity:0.7;fill:url(#SVGID_00000145023127090760312890000010101990498716920241_);}
	.st6{clip-path:url(#SVGID_00000093139362709640355630000015648570299560781712_);}
	.st7{fill:url(#SVGID_00000044148343841843037420000015772136703991616185_);}
	.st8{fill:url(#SVGID_00000109002249969768072850000011907614329546535338_);}
	.st9{fill:url(#SVGID_00000116933056676349242210000012679611127854338459_);}
	.st10{filter:url(#Adobe_OpacityMaskFilter);}
	.st11{fill:url(#SVGID_00000155122171560982845430000008423382763011835541_);}
	.st12{mask:url(#SVGID_00000021806831432371059380000011442210932564953003_);}
	
		.st13{clip-path:url(#SVGID_00000121248997216656778630000008021258765590679691_);fill:url(#SVGID_00000038383289555998828590000005345461595642682241_);}
	.st14{opacity:0.7;fill:url(#SVGID_00000053502801666963400970000008992046749181592990_);}
	.st15{fill:url(#SVGID_00000141444972332012552590000003858980712650416821_);}
	.st16{fill:url(#SVGID_00000074403240316634816900000016557972230299744181_);}
	.st17{opacity:0.3;fill:url(#SVGID_00000173119596571336595380000014310702065435477163_);}
	.st18{fill:url(#SVGID_00000074423856665471154190000006131025474189855161_);}
	.st19{fill:url(#SVGID_00000052817676215792007790000001076789688806914751_);}
	.st20{fill:url(#SVGID_00000100373211209950216730000001605407589715415976_);}
	.st21{fill:url(#SVGID_00000147926122399176949610000008546336914496603293_);}
	.st22{fill:url(#SVGID_00000088851362641257934380000017879592164674364849_);}
	.st23{opacity:0.7;fill:url(#SVGID_00000165923553554038815900000002190130199675942041_);}
	.st24{fill:url(#SVGID_00000066476499781579253770000000641847545805801133_);}
	.st25{fill:url(#SVGID_00000025409412431092721280000014268114560114876841_);}
	.st26{opacity:0.3;fill:url(#SVGID_00000039106915980250603800000012088050850179907210_);}
	.st27{fill:url(#SVGID_00000011011633496860801160000017384207513243475330_);}
	.st28{fill:url(#SVGID_00000161596123384505595230000007079367565758368666_);}
	.st29{fill:url(#SVGID_00000114048775931973174930000009825814069022747810_);}
	.st30{fill:url(#SVGID_00000181799033704186815080000003387817457488797061_);}
	.st31{fill:url(#SVGID_00000047746596343463455700000006533515710182868927_);}
	.st32{fill:url(#SVGID_00000024683889093692319490000009647612272510443144_);}
	.st33{fill:url(#SVGID_00000169527401268708282270000007136258382178884519_);}
</style>
<g>
	<g>
		<radialGradient id="SVGID_1_" cx="311.4176" cy="105.0713" r="358.3158" gradientUnits="userSpaceOnUse">
			<stop  offset="0" style="stop-color:#FFE300"/>
			<stop  offset="2.939000e-03" style="stop-color:#FFE300"/>
			<stop  offset="8.284272e-02" style="stop-color:#FDD404"/>
			<stop  offset="0.2487" style="stop-color:#F9BB0C"/>
			<stop  offset="0.4222" style="stop-color:#F7A911"/>
			<stop  offset="0.6066" style="stop-color:#F59F14"/>
			<stop  offset="0.8206" style="stop-color:#F59B15"/>
			<stop  offset="1" style="stop-color:#F59B15"/>
		</radialGradient>
		<circle class="st0" cx="257" cy="231.3" r="197.7"/>
		
			<linearGradient id="SVGID_00000068664905114524996320000009483066907153805486_" gradientUnits="userSpaceOnUse" x1="257.4352" y1="21.2444" x2="256.523" y2="434.4196">
			<stop  offset="0" style="stop-color:#009EC8;stop-opacity:0.8"/>
			<stop  offset="0.1223" style="stop-color:#039EC6;stop-opacity:0.6505"/>
			<stop  offset="0.2107" style="stop-color:#0C9EBF;stop-opacity:0.5425"/>
			<stop  offset="0.2884" style="stop-color:#1C9EB4;stop-opacity:0.4475"/>
			<stop  offset="0.3599" style="stop-color:#329DA3;stop-opacity:0.3601"/>
			<stop  offset="0.4273" style="stop-color:#4F9D8E;stop-opacity:0.2778"/>
			<stop  offset="0.4915" style="stop-color:#739D74;stop-opacity:0.1992"/>
			<stop  offset="0.5532" style="stop-color:#9D9C55;stop-opacity:0.1238"/>
			<stop  offset="0.6115" style="stop-color:#CC9C33;stop-opacity:5.256259e-02"/>
			<stop  offset="0.6545" style="stop-color:#F59B15;stop-opacity:0"/>
		</linearGradient>
		<circle style="fill:url(#SVGID_00000068664905114524996320000009483066907153805486_);" cx="257" cy="231.3" r="197.7"/>
		<g>
			<defs>
				<circle id="SVGID_00000155856209621411031570000002071247573550105472_" cx="257" cy="231.3" r="197.7"/>
			</defs>
			<clipPath id="SVGID_00000149383260606947813490000005986963146771196549_">
				<use xlink:href="#SVGID_00000155856209621411031570000002071247573550105472_"  style="overflow:visible;"/>
			</clipPath>
			<g style="clip-path:url(#SVGID_00000149383260606947813490000005986963146771196549_);">
				
					<radialGradient id="SVGID_00000025444480041962871390000009849035308303225756_" cx="28.5057" cy="340.0045" r="106.2728" gradientUnits="userSpaceOnUse">
					<stop  offset="0" style="stop-color:#E43C9F"/>
					<stop  offset="0.2113" style="stop-color:#E43FA0;stop-opacity:0.7887"/>
					<stop  offset="0.3587" style="stop-color:#E648A5;stop-opacity:0.6413"/>
					<stop  offset="0.4867" style="stop-color:#E857AD;stop-opacity:0.5133"/>
					<stop  offset="0.6037" style="stop-color:#EB6DB7;stop-opacity:0.3963"/>
					<stop  offset="0.7131" style="stop-color:#EF8AC5;stop-opacity:0.2869"/>
					<stop  offset="0.817" style="stop-color:#F4ACD6;stop-opacity:0.183"/>
					<stop  offset="0.9145" style="stop-color:#F9D5EA;stop-opacity:8.550996e-02"/>
					<stop  offset="1" style="stop-color:#FFFFFF;stop-opacity:0"/>
				</radialGradient>
				
					<ellipse style="opacity:0.7;fill:url(#SVGID_00000025444480041962871390000009849035308303225756_);" cx="48.5" cy="323.1" rx="76.7" ry="91.7"/>
			</g>
			<g style="clip-path:url(#SVGID_00000149383260606947813490000005986963146771196549_);">
				
					<radialGradient id="SVGID_00000104694655826814638820000003983274596473278354_" cx="489.5638" cy="307.1695" r="122.5216" gradientUnits="userSpaceOnUse">
					<stop  offset="0" style="stop-color:#E43C9F"/>
					<stop  offset="0.1848" style="stop-color:#E43FA0;stop-opacity:0.7887"/>
					<stop  offset="0.3137" style="stop-color:#E648A5;stop-opacity:0.6413"/>
					<stop  offset="0.4257" style="stop-color:#E857AD;stop-opacity:0.5133"/>
					<stop  offset="0.528" style="stop-color:#EB6DB7;stop-opacity:0.3963"/>
					<stop  offset="0.6237" style="stop-color:#EF8AC5;stop-opacity:0.2869"/>
					<stop  offset="0.7146" style="stop-color:#F4ACD6;stop-opacity:0.183"/>
					<stop  offset="0.7999" style="stop-color:#F9D5EA;stop-opacity:8.550996e-02"/>
					<stop  offset="0.8747" style="stop-color:#FFFFFF;stop-opacity:0"/>
				</radialGradient>
				
					<ellipse style="opacity:0.7;fill:url(#SVGID_00000104694655826814638820000003983274596473278354_);" cx="462.1" cy="306.7" rx="76.7" ry="91.7"/>
			</g>
		</g>
	</g>
	<g>
		
			<radialGradient id="SVGID_00000155867826233764534050000007949230385684297648_" cx="260.2434" cy="316.4786" r="122.81" gradientTransform="matrix(1.0433 0 0 1 -11.1843 0)" gradientUnits="userSpaceOnUse">
			<stop  offset="0" style="stop-color:#E53CA0"/>
			<stop  offset="0.2111" style="stop-color:#E53EA1;stop-opacity:0.7889"/>
			<stop  offset="0.3584" style="stop-color:#E748A6;stop-opacity:0.6416"/>
			<stop  offset="0.4864" style="stop-color:#E957AD;stop-opacity:0.5136"/>
			<stop  offset="0.6033" style="stop-color:#EC6DB8;stop-opacity:0.3967"/>
			<stop  offset="0.7126" style="stop-color:#EF89C6;stop-opacity:0.2874"/>
			<stop  offset="0.8164" style="stop-color:#F4ACD7;stop-opacity:0.1836"/>
			<stop  offset="0.9139" style="stop-color:#F9D4EA;stop-opacity:8.613789e-02"/>
			<stop  offset="1" style="stop-color:#FFFFFF;stop-opacity:0"/>
		</radialGradient>
		<path style="opacity:0.7;fill:url(#SVGID_00000155867826233764534050000007949230385684297648_);" d="M329.3,394.5
			c-6.8,0-13.2-1.6-19.3-3.1l-1.8-0.4c-16.9-4.1-33-6.4-48-7c-15,0.5-31.2,2.9-48,7l-1.8,0.4c-6.1,1.5-12.4,3.1-19.3,3.1
			c-0.5,0-1.1,0-1.6,0c-15.6-0.6-30.5-10.3-38.1-24.7c-15.8-30.2,5.3-65.3,15.1-78.9c18.3-25.4,43.4-44.1,67.4-49.8
			c7-1.7,14.3-2.5,21.8-2.5c20.6,0,41.8,6.4,61.1,18.6c26.5,16.7,48.3,44.2,55.7,70c4.3,15.2,3.1,30.3-3.4,42.7
			c-7.6,14.4-22.5,24.1-38.1,24.7C330.4,394.5,329.9,394.5,329.3,394.5C329.3,394.5,329.3,394.5,329.3,394.5z"/>
		<g>
			<defs>
				<path id="SVGID_00000111155986452405095240000013003489766681231772_" d="M360.6,323.8c-7.1-26-28-51.1-50.3-65.8
					c-21.5-14.1-48.1-21.5-73.5-15.1c-24.4,6.1-46.4,26.6-60.3,46.9c-13.5,19.7-25.6,48.4-14,71.5c5.8,11.4,17.4,20.2,30.2,20.7
					c6.7,0.3,13.2-1.6,19.7-3.2c15.6-4,31.7-6.6,47.8-7.2c16.1,0.6,32.2,3.2,47.8,7.2c6.5,1.6,13,3.5,19.7,3.2
					c12.8-0.5,24.4-9.2,30.2-20.7C363.7,349.9,364,336.2,360.6,323.8z"/>
			</defs>
			<clipPath id="SVGID_00000045586046163818197110000002410903119337722014_">
				<use xlink:href="#SVGID_00000111155986452405095240000013003489766681231772_"  style="overflow:visible;"/>
			</clipPath>
			<g style="clip-path:url(#SVGID_00000045586046163818197110000002410903119337722014_);">
				
					<linearGradient id="SVGID_00000018213514323365238980000000286960640092176038_" gradientUnits="userSpaceOnUse" x1="259.6501" y1="221.278" x2="260.5622" y2="383.6293">
					<stop  offset="0" style="stop-color:#661F00"/>
					<stop  offset="0.2995" style="stop-color:#551800"/>
					<stop  offset="0.8882" style="stop-color:#2A0700"/>
					<stop  offset="1" style="stop-color:#210400"/>
				</linearGradient>
				<path style="fill:url(#SVGID_00000018213514323365238980000000286960640092176038_);" d="M360.6,323.8
					c-7.1-26-28-51.1-50.3-65.8c-21.5-14.1-48.1-21.5-73.5-15.1c-24.4,6.1-46.4,26.6-60.3,46.9c-13.5,19.7-25.6,48.4-14,71.5
					c5.8,11.4,17.4,20.2,30.2,20.7c6.7,0.3,13.2-1.6,19.7-3.2c15.6-4,31.7-6.6,47.8-7.2c16.1,0.6,32.2,3.2,47.8,7.2
					c6.5,1.6,13,3.5,19.7,3.2c12.8-0.5,24.4-9.2,30.2-20.7C363.7,349.9,364,336.2,360.6,323.8z"/>
				
					<linearGradient id="SVGID_00000013884821638847558240000010960277386896441264_" gradientUnits="userSpaceOnUse" x1="268.1868" y1="350.518" x2="266.9706" y2="229.2107">
					<stop  offset="5.560080e-02" style="stop-color:#E70A6A"/>
					<stop  offset="0.1816" style="stop-color:#E10967;stop-opacity:0.8666"/>
					<stop  offset="0.3528" style="stop-color:#D0085D;stop-opacity:0.6853"/>
					<stop  offset="0.5499" style="stop-color:#B3064C;stop-opacity:0.4766"/>
					<stop  offset="0.7664" style="stop-color:#8B0335;stop-opacity:0.2474"/>
					<stop  offset="0.9963" style="stop-color:#590018;stop-opacity:3.874838e-03"/>
					<stop  offset="1" style="stop-color:#580017;stop-opacity:0"/>
				</linearGradient>
				<path style="fill:url(#SVGID_00000013884821638847558240000010960277386896441264_);" d="M231.2,272.8
					c14.5,21.6,52.2,24.2,70.1,5.5c5.3-5.6,8.4-12.3,10-19.6c-0.3-0.2-0.6-0.4-0.9-0.6c-21.5-14.1-48.1-21.5-73.5-15.1
					c-4.7,1.2-9.2,2.9-13.7,5C223.4,256.7,226.2,265.4,231.2,272.8z"/>
				
					<linearGradient id="SVGID_00000134210077953899564190000015559047646640024474_" gradientUnits="userSpaceOnUse" x1="259.4268" y1="390.1432" x2="259.4268" y2="203.618">
					<stop  offset="0" style="stop-color:#661F00;stop-opacity:0.2"/>
					<stop  offset="0.2995" style="stop-color:#551800;stop-opacity:0.4396"/>
					<stop  offset="0.8882" style="stop-color:#2A0700;stop-opacity:0.9105"/>
					<stop  offset="1" style="stop-color:#210400"/>
				</linearGradient>
				<path style="fill:url(#SVGID_00000134210077953899564190000015559047646640024474_);" d="M321.5,271.4
					c-4.5-5.4-9.5-10.4-15.1-14.7c-6.3-4.9-13.4-8.6-20.9-11.3c-3.8-1.3-7.7-2.3-11.6-3.1c-1.8-0.3-4.4-1.2-6.2-0.9
					c-3.2,0.5,0.2,6.9,0.9,8.6c2.6,5.6,5.3,11,1.6,17c-5.8,9.1-21.3,6.3-21.5-5.3c0-2.8,0.7-5.6,1.3-8.4c0.7-3,2.7-8.6-0.2-11
					c-1.1-0.9-2.8-1.2-4.2-0.9c-2.9,0.4-6,1.4-8.9,2c-2.9,0.6-5.2,1.9-7.9,2.9c-8,2.9-15.5,7-22.3,12.1
					c-27.2,20.8-35.8,55-23.3,86.6c2.6,6.5,5.8,12.6,9.8,18.4c1.8,2.7,3.8,5.3,6.1,7.6c1.2,1.2,6.3,6.5,8.1,6
					c0.9-0.2,1.7-0.4,2.6-0.7c15.6-4,31.7-6.7,47.8-7.3c13.9,0.5,41.8,4.2,55.4,7.3c1.8,0.4,8.4-7.5,9.6-8.9
					c3.2-3.5,6.1-7.3,8.5-11.4c4.9-8.1,8.4-17.2,9.7-26.6C343.8,308.2,334.8,287.5,321.5,271.4z"/>
				<defs>
					<filter id="Adobe_OpacityMaskFilter" filterUnits="userSpaceOnUse" x="193.8" y="270.6" width="132.4" height="105">
						<feColorMatrix  type="matrix" values="1 0 0 0 0  0 1 0 0 0  0 0 1 0 0  0 0 0 1 0"/>
					</filter>
				</defs>
				
					<mask maskUnits="userSpaceOnUse" x="193.8" y="270.6" width="132.4" height="105" id="SVGID_00000151527418586408399230000008930674547858634376_">
					<g class="st10">
						
							<linearGradient id="SVGID_00000070109392552836415890000017966330656219979649_" gradientUnits="userSpaceOnUse" x1="265.1322" y1="241.0575" x2="264.2202" y2="375.5896">
							<stop  offset="0.2846" style="stop-color:#000000"/>
							<stop  offset="0.3843" style="stop-color:#363636"/>
							<stop  offset="0.509" style="stop-color:#727272"/>
							<stop  offset="0.6292" style="stop-color:#A5A5A5"/>
							<stop  offset="0.7414" style="stop-color:#CCCCCC"/>
							<stop  offset="0.8439" style="stop-color:#E8E8E8"/>
							<stop  offset="0.9334" style="stop-color:#F9F9F9"/>
							<stop  offset="1" style="stop-color:#FFFFFF"/>
						</linearGradient>
						
							<rect x="191.5" y="236.7" style="fill:url(#SVGID_00000070109392552836415890000017966330656219979649_);" width="146.4" height="148.2"/>
					</g>
				</mask>
				<g style="mask:url(#SVGID_00000151527418586408399230000008930674547858634376_);">
					<defs>
						<path id="SVGID_00000147221594624610028190000012980252980645086600_" d="M321.3,302.8c-10.8-21.4-39.8-37-60.5-19
							c-0.3,0.2-0.5,0.5-0.8,0.7c-0.3-0.2-0.5-0.5-0.8-0.7c-20.7-18-49.7-2.5-60.5,19c-12.2,24.3-0.3,51.7,21.6,65.4
							c5.7,3.5,11.9,6.3,18.5,7.1c6.6,0.8,13.7-0.5,19-4.6c0.8-0.6,1.5-1.2,2.1-1.9c0.7,0.7,1.4,1.3,2.1,1.9c5.3,4,12.4,5.4,19,4.6
							c6.6-0.8,12.9-3.6,18.5-7.1C321.7,354.5,333.5,327.1,321.3,302.8z"/>
					</defs>
					<clipPath id="SVGID_00000007419592798517657970000005234188790287917440_">
						<use xlink:href="#SVGID_00000147221594624610028190000012980252980645086600_"  style="overflow:visible;"/>
					</clipPath>
					
						<linearGradient id="SVGID_00000099658538738311001190000004606241001767106721_" gradientUnits="userSpaceOnUse" x1="262.6645" y1="384.3968" x2="258.053" y2="268.6501">
						<stop  offset="5.560080e-02" style="stop-color:#E70A6A"/>
						<stop  offset="0.3579" style="stop-color:#BD0752;stop-opacity:0.6799"/>
						<stop  offset="1" style="stop-color:#580017;stop-opacity:0"/>
					</linearGradient>
					
						<path style="clip-path:url(#SVGID_00000007419592798517657970000005234188790287917440_);fill:url(#SVGID_00000099658538738311001190000004606241001767106721_);" d="
						M321.3,297.5c-10.8-21.4-39.8-37-60.5-19c-0.3,0.2-0.5,0.5-0.8,0.7c-0.3-0.2-0.5-0.5-0.8-0.7c-20.7-18-49.7-2.5-60.5,19
						c-12.2,24.3-0.3,51.7,21.6,65.4c5.7,3.5,11.9,6.3,18.5,7.1c6.6,0.8,13.7-0.5,19-4.6c0.8-0.6,1.5-1.2,2.1-1.9
						c0.7,0.7,1.4,1.3,2.1,1.9c5.3,4,12.4,5.4,19,4.6c6.6-0.8,12.9-3.6,18.5-7.1C321.7,349.1,333.5,321.7,321.3,297.5z"/>
				</g>
			</g>
		</g>
	</g>
	<g>
		<g>
			<g>
				<g>
					<g>
						<g>
							
								<radialGradient id="SVGID_00000163774258433873575790000002971054400370786189_" cx="170.8708" cy="197.8669" r="86.0443" gradientTransform="matrix(0.9232 0 0 0.9919 13.1303 0.5255)" gradientUnits="userSpaceOnUse">
								<stop  offset="0" style="stop-color:#E53CA0"/>
								<stop  offset="0.2111" style="stop-color:#E53EA1;stop-opacity:0.7889"/>
								<stop  offset="0.3584" style="stop-color:#E748A6;stop-opacity:0.6416"/>
								<stop  offset="0.4864" style="stop-color:#E957AD;stop-opacity:0.5136"/>
								<stop  offset="0.6033" style="stop-color:#EC6DB8;stop-opacity:0.3967"/>
								<stop  offset="0.7126" style="stop-color:#EF89C6;stop-opacity:0.2874"/>
								<stop  offset="0.8164" style="stop-color:#F4ACD7;stop-opacity:0.1836"/>
								<stop  offset="0.9139" style="stop-color:#F9D4EA;stop-opacity:8.613789e-02"/>
								<stop  offset="1" style="stop-color:#FFFFFF;stop-opacity:0"/>
							</radialGradient>
							
								<ellipse style="opacity:0.7;fill:url(#SVGID_00000163774258433873575790000002971054400370786189_);" cx="169.3" cy="180.6" rx="76" ry="83.4"/>
							
								<radialGradient id="SVGID_00000078754880427627165820000000572993321275047604_" cx="168.3527" cy="177.1018" r="88.4578" gradientUnits="userSpaceOnUse">
								<stop  offset="0" style="stop-color:#FFFFFF"/>
								<stop  offset="0.436" style="stop-color:#FDFEFE"/>
								<stop  offset="0.5931" style="stop-color:#F6FBFB"/>
								<stop  offset="0.705" style="stop-color:#EBF5F6"/>
								<stop  offset="0.7956" style="stop-color:#DAEDEF"/>
								<stop  offset="0.8731" style="stop-color:#C4E2E6"/>
								<stop  offset="0.9405" style="stop-color:#A9D5DB"/>
								<stop  offset="1" style="stop-color:#8AC6CF"/>
							</radialGradient>
							
								<ellipse style="fill:url(#SVGID_00000078754880427627165820000000572993321275047604_);" cx="169" cy="167.8" rx="74.9" ry="76.8"/>
						</g>
						<g>
							
								<linearGradient id="SVGID_00000036229645817482465030000006179445799941428386_" gradientUnits="userSpaceOnUse" x1="172.2083" y1="210.5609" x2="175.542" y2="138.1102" gradientTransform="matrix(-1 0 0 1 343.1798 0)">
								<stop  offset="0" style="stop-color:#3519A8"/>
								<stop  offset="0.1266" style="stop-color:#007DC6"/>
								<stop  offset="0.3105" style="stop-color:#005C9F"/>
								<stop  offset="0.5036" style="stop-color:#003F7D"/>
								<stop  offset="0.6879" style="stop-color:#002B65"/>
								<stop  offset="0.858" style="stop-color:#001E57"/>
								<stop  offset="1" style="stop-color:#001A51"/>
							</linearGradient>
							<path style="fill:url(#SVGID_00000036229645817482465030000006179445799941428386_);" d="M135.5,168.5
								c0.4,18.1,15.7,32.4,34.2,32c18.5-0.4,33.2-15.4,32.8-33.4c-0.4-18.1-15.7-32.4-34.2-32C149.8,135.5,135.1,150.4,135.5,168.5
								z"/>
							
								<linearGradient id="SVGID_00000033329921715144469530000004121612975761676179_" gradientUnits="userSpaceOnUse" x1="172.2186" y1="210.3375" x2="175.5424" y2="138.1012" gradientTransform="matrix(-1 0 0 1 343.1798 0)">
								<stop  offset="0" style="stop-color:#321912"/>
								<stop  offset="0.1255" style="stop-color:#361D16"/>
								<stop  offset="0.2647" style="stop-color:#422A24"/>
								<stop  offset="0.4105" style="stop-color:#55403A"/>
								<stop  offset="0.5607" style="stop-color:#715E59"/>
								<stop  offset="0.7145" style="stop-color:#948481"/>
								<stop  offset="0.8689" style="stop-color:#BFB3B1"/>
								<stop  offset="1" style="stop-color:#E8E0E0"/>
							</linearGradient>
							<path style="opacity:0.3;fill:url(#SVGID_00000033329921715144469530000004121612975761676179_);" d="M196.3,170.6
								c-6.6-5.4-15.2-8.2-24.1-8c-9.6,0.2-18.4,3.9-25.5,9.7c-3.7,3-6,6.4-7.7,10.1c-2.1-4.2-3.4-8.9-3.5-13.9
								c-0.4-18.1,14.3-33,32.8-33.4c18.5-0.4,33.8,13.9,34.2,32c0.1,3-0.3,5.9-1,8.6C199.9,173.8,198.1,172.1,196.3,170.6z"/>
							
								<linearGradient id="SVGID_00000113350983859298711700000018248486205507387539_" gradientUnits="userSpaceOnUse" x1="174.1777" y1="192.4129" x2="174.1777" y2="136.4863" gradientTransform="matrix(-1 0 0 1 343.1798 0)">
								<stop  offset="0" style="stop-color:#321912"/>
								<stop  offset="0.1255" style="stop-color:#361D16"/>
								<stop  offset="0.2647" style="stop-color:#422A24"/>
								<stop  offset="0.4105" style="stop-color:#55403A"/>
								<stop  offset="0.5607" style="stop-color:#715E59"/>
								<stop  offset="0.7145" style="stop-color:#948481"/>
								<stop  offset="0.8689" style="stop-color:#BFB3B1"/>
								<stop  offset="1" style="stop-color:#E8E0E0"/>
							</linearGradient>
							<path style="fill:url(#SVGID_00000113350983859298711700000018248486205507387539_);" d="M142.7,168.3
								c0.3,15,12.3,26.9,26.9,26.6c14.5-0.3,26.1-12.7,25.7-27.8c-0.3-15-12.3-26.9-26.9-26.6C153.9,140.9,142.4,153.3,142.7,168.3
								z"/>
							
								<linearGradient id="SVGID_00000109724254343976599390000002400889716038744486_" gradientUnits="userSpaceOnUse" x1="160.7174" y1="160.4103" x2="160.7174" y2="168.9458" gradientTransform="matrix(-0.9999 3.800000e-03 -3.800000e-03 0.8203 344.1666 44.5689)">
								<stop  offset="0" style="stop-color:#FFFFFF"/>
								<stop  offset="0.4148" style="stop-color:#FEFDFF"/>
								<stop  offset="0.5643" style="stop-color:#FAF6FE"/>
								<stop  offset="0.6708" style="stop-color:#F3EBFC"/>
								<stop  offset="0.7569" style="stop-color:#EADAFA"/>
								<stop  offset="0.8307" style="stop-color:#DDC4F7"/>
								<stop  offset="0.896" style="stop-color:#CEA8F3"/>
								<stop  offset="0.9536" style="stop-color:#BB89EE"/>
								<stop  offset="0.9785" style="stop-color:#B279EC"/>
							</linearGradient>
							<path style="fill:url(#SVGID_00000109724254343976599390000002400889716038744486_);" d="M185.1,181c0.1,0.6-0.2,1.2-0.9,1.7
								c-1.4,1-3.7,0.1-3.7-1.8c0-0.7,0.5-1.4,1.1-1.8C183.2,178.3,185,179.6,185.1,181z"/>
							
								<linearGradient id="SVGID_00000105407497078107145230000004771488149422363070_" gradientUnits="userSpaceOnUse" x1="160.2536" y1="120.0965" x2="160.2536" y2="146.017" gradientTransform="matrix(-0.8513 7.000000e-04 -7.000000e-04 0.8202 291.7397 45.6424)">
								<stop  offset="0" style="stop-color:#FFFFFF"/>
								<stop  offset="0.4148" style="stop-color:#FEFDFF"/>
								<stop  offset="0.5643" style="stop-color:#FAF6FE"/>
								<stop  offset="0.6708" style="stop-color:#F3EBFC"/>
								<stop  offset="0.7569" style="stop-color:#EADAFA"/>
								<stop  offset="0.8307" style="stop-color:#DDC4F7"/>
								<stop  offset="0.896" style="stop-color:#CEA8F3"/>
								<stop  offset="0.9536" style="stop-color:#BB89EE"/>
								<stop  offset="0.9785" style="stop-color:#B279EC"/>
							</linearGradient>
							<path style="fill:url(#SVGID_00000105407497078107145230000004771488149422363070_);" d="M161.8,156.9
								c0.1,1.7-0.5,3.4-1.6,4.7c-3,3.5-9.4,2-11-2.1c-1.1-2.8,0-6.1,2.4-7.7C155.7,148.8,161.6,151.8,161.8,156.9z"/>
							
								<linearGradient id="SVGID_00000099631875653449741110000016102052406507277463_" gradientUnits="userSpaceOnUse" x1="149.6098" y1="131.3994" x2="149.6098" y2="134.5154" gradientTransform="matrix(-0.7652 -1.200000e-03 1.200000e-03 0.8202 296.8648 45.1709)">
								<stop  offset="0" style="stop-color:#FFFFFF"/>
								<stop  offset="0.4148" style="stop-color:#FEFDFF"/>
								<stop  offset="0.5643" style="stop-color:#FAF6FE"/>
								<stop  offset="0.6708" style="stop-color:#F3EBFC"/>
								<stop  offset="0.7569" style="stop-color:#EADAFA"/>
								<stop  offset="0.8307" style="stop-color:#DDC4F7"/>
								<stop  offset="0.896" style="stop-color:#CEA8F3"/>
								<stop  offset="0.9536" style="stop-color:#BB89EE"/>
								<stop  offset="0.9785" style="stop-color:#B279EC"/>
							</linearGradient>
							<path style="fill:url(#SVGID_00000099631875653449741110000016102052406507277463_);" d="M183.3,154.3
								c0.1,0.9-1.2,1.1-1.5,0.3c-0.3-1,1.2-1.5,1.5-0.5C183.3,154.2,183.3,154.2,183.3,154.3z"/>
							
								<linearGradient id="SVGID_00000178909674976096863690000010717713241824467129_" gradientUnits="userSpaceOnUse" x1="183.8098" y1="170.5084" x2="183.8098" y2="174.1689" gradientTransform="matrix(-0.7652 -9.000000e-04 9.000000e-04 0.8093 296.3258 48.5502)">
								<stop  offset="0" style="stop-color:#FFFFFF"/>
								<stop  offset="0.4148" style="stop-color:#FEFDFF"/>
								<stop  offset="0.5643" style="stop-color:#FAF6FE"/>
								<stop  offset="0.6708" style="stop-color:#F3EBFC"/>
								<stop  offset="0.7569" style="stop-color:#EADAFA"/>
								<stop  offset="0.8307" style="stop-color:#DDC4F7"/>
								<stop  offset="0.896" style="stop-color:#CEA8F3"/>
								<stop  offset="0.9536" style="stop-color:#BB89EE"/>
								<stop  offset="0.9785" style="stop-color:#B279EC"/>
							</linearGradient>
							<path style="fill:url(#SVGID_00000178909674976096863690000010717713241824467129_);" d="M156.7,188.2c0,0.1,0,0.1,0,0.2
								c-0.3,1.4-2.4,0.6-1.6-0.7C155.6,186.9,156.7,187.3,156.7,188.2z"/>
						</g>
					</g>
				</g>
			</g>
		</g>
		<g>
			<g>
				<g>
					<g>
						<g>
							
								<radialGradient id="SVGID_00000146497727481248419280000016937369621892479112_" cx="-13.6209" cy="197.8999" r="86.045" gradientTransform="matrix(-0.9232 0 0 0.9722 330.4898 2.4144)" gradientUnits="userSpaceOnUse">
								<stop  offset="0" style="stop-color:#E53CA0"/>
								<stop  offset="0.2111" style="stop-color:#E53EA1;stop-opacity:0.7889"/>
								<stop  offset="0.3584" style="stop-color:#E748A6;stop-opacity:0.6416"/>
								<stop  offset="0.4864" style="stop-color:#E957AD;stop-opacity:0.5136"/>
								<stop  offset="0.6033" style="stop-color:#EC6DB8;stop-opacity:0.3967"/>
								<stop  offset="0.7126" style="stop-color:#EF89C6;stop-opacity:0.2874"/>
								<stop  offset="0.8164" style="stop-color:#F4ACD7;stop-opacity:0.1836"/>
								<stop  offset="0.9139" style="stop-color:#F9D4EA;stop-opacity:8.613789e-02"/>
								<stop  offset="1" style="stop-color:#FFFFFF;stop-opacity:0"/>
							</radialGradient>
							
								<ellipse style="opacity:0.7;fill:url(#SVGID_00000146497727481248419280000016937369621892479112_);" cx="344.7" cy="178.9" rx="76" ry="81.8"/>
							
								<radialGradient id="SVGID_00000083776503032550656730000001550753485048044696_" cx="-1.9702" cy="177.1018" r="88.4578" gradientTransform="matrix(-1 0 0 1 343.62 0)" gradientUnits="userSpaceOnUse">
								<stop  offset="0" style="stop-color:#FFFFFF"/>
								<stop  offset="0.436" style="stop-color:#FDFEFE"/>
								<stop  offset="0.5931" style="stop-color:#F6FBFB"/>
								<stop  offset="0.705" style="stop-color:#EBF5F6"/>
								<stop  offset="0.7956" style="stop-color:#DAEDEF"/>
								<stop  offset="0.8731" style="stop-color:#C4E2E6"/>
								<stop  offset="0.9405" style="stop-color:#A9D5DB"/>
								<stop  offset="1" style="stop-color:#8AC6CF"/>
							</radialGradient>
							
								<ellipse style="fill:url(#SVGID_00000083776503032550656730000001550753485048044696_);" cx="344.9" cy="167.8" rx="74.9" ry="76.8"/>
						</g>
						<g>
							
								<linearGradient id="SVGID_00000124122834504225795680000010298266976171030421_" gradientUnits="userSpaceOnUse" x1="342.5312" y1="210.5609" x2="345.8648" y2="138.1102" gradientTransform="matrix(1 0 0 1 0.4402 0)">
								<stop  offset="0" style="stop-color:#3519A8"/>
								<stop  offset="0.1266" style="stop-color:#007DC6"/>
								<stop  offset="0.3105" style="stop-color:#005C9F"/>
								<stop  offset="0.5036" style="stop-color:#003F7D"/>
								<stop  offset="0.6879" style="stop-color:#002B65"/>
								<stop  offset="0.858" style="stop-color:#001E57"/>
								<stop  offset="1" style="stop-color:#001A51"/>
							</linearGradient>
							<path style="fill:url(#SVGID_00000124122834504225795680000010298266976171030421_);" d="M378.4,168.5
								c-0.4,18.1-15.7,32.4-34.2,32c-18.5-0.4-33.2-15.4-32.8-33.4c0.4-18.1,15.7-32.4,34.2-32
								C364.1,135.5,378.8,150.4,378.4,168.5z"/>
							
								<linearGradient id="SVGID_00000139986307957370868820000010490334914945251227_" gradientUnits="userSpaceOnUse" x1="342.5414" y1="210.3375" x2="345.8652" y2="138.1012" gradientTransform="matrix(1 0 0 1 0.4402 0)">
								<stop  offset="0" style="stop-color:#321912"/>
								<stop  offset="0.1255" style="stop-color:#361D16"/>
								<stop  offset="0.2647" style="stop-color:#422A24"/>
								<stop  offset="0.4105" style="stop-color:#55403A"/>
								<stop  offset="0.5607" style="stop-color:#715E59"/>
								<stop  offset="0.7145" style="stop-color:#948481"/>
								<stop  offset="0.8689" style="stop-color:#BFB3B1"/>
								<stop  offset="1" style="stop-color:#E8E0E0"/>
							</linearGradient>
							<path style="opacity:0.3;fill:url(#SVGID_00000139986307957370868820000010490334914945251227_);" d="M317.7,170.6
								c6.6-5.4,15.2-8.2,24.1-8c9.6,0.2,18.4,3.9,25.5,9.7c3.7,3,6,6.4,7.7,10.1c2.1-4.2,3.4-8.9,3.5-13.9
								c0.4-18.1-14.3-33-32.8-33.4c-18.5-0.4-33.8,13.9-34.2,32c-0.1,3,0.3,5.9,1,8.6C314,173.8,315.9,172.1,317.7,170.6z"/>
							
								<linearGradient id="SVGID_00000015345543350447048040000012717826683646020276_" gradientUnits="userSpaceOnUse" x1="344.5006" y1="192.4337" x2="344.5006" y2="136.4599" gradientTransform="matrix(1 0 0 1 0.4402 0)">
								<stop  offset="0" style="stop-color:#321912"/>
								<stop  offset="0.1255" style="stop-color:#361D16"/>
								<stop  offset="0.2647" style="stop-color:#422A24"/>
								<stop  offset="0.4105" style="stop-color:#55403A"/>
								<stop  offset="0.5607" style="stop-color:#715E59"/>
								<stop  offset="0.7145" style="stop-color:#948481"/>
								<stop  offset="0.8689" style="stop-color:#BFB3B1"/>
								<stop  offset="1" style="stop-color:#E8E0E0"/>
							</linearGradient>
							<path style="fill:url(#SVGID_00000015345543350447048040000012717826683646020276_);" d="M371.3,168.3
								c-0.3,15-12.4,27-26.9,26.6c-14.5-0.3-26.1-12.7-25.8-27.8c0.3-15,12.4-27,26.9-26.6C360,140.9,371.6,153.3,371.3,168.3z"/>
							
								<linearGradient id="SVGID_00000143597061773116846980000017232225509011659937_" gradientUnits="userSpaceOnUse" x1="331.0603" y1="159.6212" x2="331.0603" y2="168.1567" gradientTransform="matrix(0.9999 3.800000e-03 3.800000e-03 0.8203 -0.5466 44.5689)">
								<stop  offset="0" style="stop-color:#FFFFFF"/>
								<stop  offset="0.4148" style="stop-color:#FEFDFF"/>
								<stop  offset="0.5643" style="stop-color:#FAF6FE"/>
								<stop  offset="0.6708" style="stop-color:#F3EBFC"/>
								<stop  offset="0.7569" style="stop-color:#EADAFA"/>
								<stop  offset="0.8307" style="stop-color:#DDC4F7"/>
								<stop  offset="0.896" style="stop-color:#CEA8F3"/>
								<stop  offset="0.9536" style="stop-color:#BB89EE"/>
								<stop  offset="0.9785" style="stop-color:#B279EC"/>
							</linearGradient>
							<path style="fill:url(#SVGID_00000143597061773116846980000017232225509011659937_);" d="M328.8,181
								c-0.1,0.6,0.2,1.2,0.9,1.7c1.4,1,3.7,0.1,3.7-1.8c0-0.7-0.5-1.4-1.1-1.8C330.7,178.3,329,179.6,328.8,181z"/>
							
								<linearGradient id="SVGID_00000148625941636188990320000010668748469001854351_" gradientUnits="userSpaceOnUse" x1="360.3277" y1="119.9257" x2="360.3277" y2="145.8462" gradientTransform="matrix(0.8513 7.000000e-04 7.000000e-04 0.8202 51.8803 45.6424)">
								<stop  offset="0" style="stop-color:#FFFFFF"/>
								<stop  offset="0.4148" style="stop-color:#FEFDFF"/>
								<stop  offset="0.5643" style="stop-color:#FAF6FE"/>
								<stop  offset="0.6708" style="stop-color:#F3EBFC"/>
								<stop  offset="0.7569" style="stop-color:#EADAFA"/>
								<stop  offset="0.8307" style="stop-color:#DDC4F7"/>
								<stop  offset="0.896" style="stop-color:#CEA8F3"/>
								<stop  offset="0.9536" style="stop-color:#BB89EE"/>
								<stop  offset="0.9785" style="stop-color:#B279EC"/>
							</linearGradient>
							<path style="fill:url(#SVGID_00000148625941636188990320000010668748469001854351_);" d="M352.2,156.9
								c-0.1,1.7,0.5,3.4,1.6,4.7c3,3.5,9.4,2,11-2.1c1.1-2.8,0-6.1-2.4-7.7C358.2,148.8,352.4,151.8,352.2,156.9z"/>
							
								<linearGradient id="SVGID_00000155859211517163143380000004393306726040036994_" gradientUnits="userSpaceOnUse" x1="372.1964" y1="131.7251" x2="372.1964" y2="134.841" gradientTransform="matrix(0.7652 -1.200000e-03 -1.200000e-03 0.8202 46.7552 45.1709)">
								<stop  offset="0" style="stop-color:#FFFFFF"/>
								<stop  offset="0.4148" style="stop-color:#FEFDFF"/>
								<stop  offset="0.5643" style="stop-color:#FAF6FE"/>
								<stop  offset="0.6708" style="stop-color:#F3EBFC"/>
								<stop  offset="0.7569" style="stop-color:#EADAFA"/>
								<stop  offset="0.8307" style="stop-color:#DDC4F7"/>
								<stop  offset="0.896" style="stop-color:#CEA8F3"/>
								<stop  offset="0.9536" style="stop-color:#BB89EE"/>
								<stop  offset="0.9785" style="stop-color:#B279EC"/>
							</linearGradient>
							<path style="fill:url(#SVGID_00000155859211517163143380000004393306726040036994_);" d="M330.6,154.3
								c-0.1,0.9,1.2,1.1,1.5,0.3c0.3-1-1.2-1.5-1.5-0.5C330.6,154.2,330.6,154.2,330.6,154.3z"/>
							
								<linearGradient id="SVGID_00000147916858795520373590000007558567282695837852_" gradientUnits="userSpaceOnUse" x1="406.3962" y1="170.7559" x2="406.3962" y2="174.4164" gradientTransform="matrix(0.7652 -9.000000e-04 -9.000000e-04 0.8093 47.2942 48.5502)">
								<stop  offset="0" style="stop-color:#FFFFFF"/>
								<stop  offset="0.4148" style="stop-color:#FEFDFF"/>
								<stop  offset="0.5643" style="stop-color:#FAF6FE"/>
								<stop  offset="0.6708" style="stop-color:#F3EBFC"/>
								<stop  offset="0.7569" style="stop-color:#EADAFA"/>
								<stop  offset="0.8307" style="stop-color:#DDC4F7"/>
								<stop  offset="0.896" style="stop-color:#CEA8F3"/>
								<stop  offset="0.9536" style="stop-color:#BB89EE"/>
								<stop  offset="0.9785" style="stop-color:#B279EC"/>
							</linearGradient>
							<path style="fill:url(#SVGID_00000147916858795520373590000007558567282695837852_);" d="M357.2,188.2c0,0.1,0,0.1,0,0.2
								c0.3,1.4,2.4,0.6,1.6-0.7C358.4,186.9,357.2,187.3,357.2,188.2z"/>
						</g>
					</g>
				</g>
			</g>
		</g>
	</g>
	<g>
		<g>
			
				<linearGradient id="SVGID_00000084498251662272736420000002196514799617741474_" gradientUnits="userSpaceOnUse" x1="148.6263" y1="102.3932" x2="138.868" y2="71.7954" gradientTransform="matrix(0.9829 -0.1842 0.1842 0.9829 -14.5608 28.3856)">
				<stop  offset="0" style="stop-color:#661F00"/>
				<stop  offset="0.2995" style="stop-color:#551800"/>
				<stop  offset="0.8882" style="stop-color:#2A0700"/>
				<stop  offset="1" style="stop-color:#210400"/>
			</linearGradient>
			<path style="fill:url(#SVGID_00000084498251662272736420000002196514799617741474_);" d="M101.2,119.7c-1.3,1.4-3.6,0-3-1.9
				C109,89.3,138,69,168.1,65.9c8.3-0.8,16.7-0.5,24.6,1.4c1.9,0.4,1.8,3.2-0.1,3.5c-17.8,2.8-34.5,7.6-50.2,16.1
				C126.5,95.4,113.5,106.6,101.2,119.7z"/>
		</g>
		<g>
			
				<linearGradient id="SVGID_00000024699373081268347520000005647441001582299270_" gradientUnits="userSpaceOnUse" x1="-65.5723" y1="62.2514" x2="-75.3305" y2="31.6536" gradientTransform="matrix(-0.9829 -0.1842 -0.1842 0.9829 310.5738 28.3856)">
				<stop  offset="0" style="stop-color:#661F00"/>
				<stop  offset="0.2995" style="stop-color:#551800"/>
				<stop  offset="0.8882" style="stop-color:#2A0700"/>
				<stop  offset="1" style="stop-color:#210400"/>
			</linearGradient>
			<path style="fill:url(#SVGID_00000024699373081268347520000005647441001582299270_);" d="M412.7,119.7c1.3,1.4,3.6,0,3-1.9
				c-10.7-28.6-39.7-48.9-69.8-51.9c-8.3-0.8-16.7-0.5-24.6,1.4c-1.9,0.4-1.8,3.2,0.1,3.5c17.8,2.8,34.5,7.6,50.2,16.1
				C387.5,95.4,400.5,106.6,412.7,119.7z"/>
		</g>
	</g>
</g>
</svg>
